<svg width="50" height="13" viewBox="0 0 50 13" fill="none" xmlns="http://www.w3.org/2000/svg">
<path d="M25.5448 2.9092C26.3532 2.9092 26.9817 3.19799 27.4304 3.77558C27.879 4.35317 28.1032 5.14712 28.1032 6.15738V6.25139C28.1032 7.23817 27.8739 8.02625 27.4152 8.61558C26.9564 9.20491 26.337 9.49958 25.5569 9.49958C24.9547 9.49958 24.4595 9.28615 24.0715 8.85935V12.0662H22.0284V3.0267H23.9382L23.9988 3.61408C24.3909 3.14416 24.9062 2.9092 25.5448 2.9092ZM11.2979 2.9092C12.1345 2.9092 12.7953 3.10696 13.2804 3.50244C13.7654 3.89798 14.014 4.44033 14.0261 5.1295V7.94305C14.0342 8.52651 14.1271 8.97289 14.305 9.28224V9.38213H12.2618C12.1891 9.25287 12.1244 9.06299 12.0678 8.81237C11.692 9.27049 11.1665 9.49958 10.4915 9.49958C9.87311 9.49958 9.34771 9.31845 8.9152 8.95625C8.48274 8.59405 8.26649 8.13881 8.26649 7.59058C8.26649 6.90141 8.52921 6.38059 9.05466 6.02818C9.5801 5.67576 10.344 5.49953 11.3464 5.49953H11.9769V5.16473C11.9769 4.58127 11.7162 4.28954 11.1948 4.28954C10.7098 4.28954 10.4673 4.52059 10.4673 4.98263H8.42412C8.42412 4.36785 8.69389 3.86861 9.23353 3.48483C9.77307 3.10109 10.4612 2.9092 11.2979 2.9092ZM17.9485 2.9092C18.8134 2.9092 19.5085 3.09913 20.034 3.47895C20.5595 3.85883 20.8222 4.35806 20.8222 4.97676H18.773C18.773 4.46773 18.4961 4.2132 17.9424 4.2132C17.7282 4.2132 17.5483 4.27095 17.4028 4.38644C17.2573 4.50199 17.1845 4.64587 17.1845 4.81819C17.1845 4.99443 17.2735 5.13733 17.4513 5.24695C17.6291 5.35663 17.9131 5.44668 18.3031 5.51715C18.6931 5.58767 19.0357 5.67185 19.3308 5.76973C20.317 6.09865 20.81 6.68799 20.81 7.53773C20.81 8.11727 20.5443 8.58915 20.0128 8.95331C19.4813 9.31747 18.7932 9.49958 17.9485 9.49958C17.3866 9.49958 16.8854 9.4017 16.4449 9.20589C16.0043 9.01008 15.6608 8.7438 15.4142 8.40705C15.1677 8.07029 15.0444 7.71592 15.0444 7.34393H16.9542C16.9622 7.63756 17.0633 7.85197 17.2573 7.9871C17.4513 8.12217 17.6998 8.1897 18.003 8.1897C18.2818 8.1897 18.4911 8.13489 18.6305 8.02527C18.77 7.91559 18.8396 7.77269 18.8396 7.59646C18.8396 7.4281 18.7488 7.29298 18.5668 7.19119C18.3849 7.08939 18.0393 6.98363 17.5301 6.87401C17.0209 6.76438 16.6005 6.62045 16.2691 6.44226C15.9377 6.26412 15.685 6.04776 15.5112 5.79322C15.3375 5.53868 15.2505 5.24695 15.2505 4.91803C15.2505 4.33457 15.4991 3.85393 15.9962 3.47602C16.4934 3.09815 17.1441 2.9092 17.9485 2.9092ZM2.5981 0.348733V4.60085L5.48979 0.348733H8.12101L4.88979 4.6126L7.87268 9.38213H5.35059L3.47114 6.19854L2.5981 7.12659V9.38213H0.470062V0.348733H2.5981ZM31.4071 3.0267V9.38213H29.3579V3.0267H31.4071ZM49.4245 3.0267V4.09569L46.5026 7.85491H49.4914V9.38213H43.9198V8.27785L46.8299 4.55387H43.4015L44.767 3.0267H49.4245ZM34.1467 7.33203C34.7059 7.33203 35.1583 7.77243 35.1583 8.31576C35.1583 8.85904 34.7059 9.29949 34.1467 9.29949C33.5881 9.29949 33.1351 8.85904 33.1351 8.31576C33.1351 7.77243 33.5881 7.33203 34.1467 7.33203ZM38.8916 0.34848V5.09503L39.0979 4.83329L40.642 2.99512H43.0977L40.7942 5.58366L43.2499 9.28899H40.9035L39.4691 6.94479L38.8916 7.49739V9.28899H36.8429V0.34848H38.8916ZM11.9769 6.55683H11.3828C10.6714 6.55683 10.3157 6.86618 10.3157 7.48487C10.3157 7.66502 10.3783 7.81086 10.5036 7.92249C10.629 8.03408 10.7886 8.08987 10.9826 8.08987C11.2372 8.08987 11.4484 8.03701 11.6162 7.9313C11.7839 7.82554 11.9041 7.70613 11.9769 7.57297V6.55683ZM25.0416 4.43641C24.5566 4.43641 24.2332 4.60476 24.0715 4.94152V7.44376C24.2494 7.79618 24.5768 7.97241 25.0537 7.97241C25.7045 7.97241 26.0399 7.4281 26.0601 6.33949V6.12802C26.0601 5.0003 25.7207 4.43641 25.0416 4.43641ZM30.4104 0.34848C30.969 0.34848 31.4219 0.80987 31.4219 1.37904C31.4219 1.94821 30.969 2.4096 30.4104 2.4096C29.8517 2.4096 29.3988 1.94821 29.3988 1.37904C29.3988 0.80987 29.8517 0.34848 30.4104 0.34848Z" fill="black"/>
</svg>
